<svg xmlns="http://www.w3.org/2000/svg" viewBox="470 281 1110 1110" width="2048" height="2048" role="img" aria-label="bolo logomark">
<path d="M0 0 C1.6 0.5 3.2 1 4.8 1.5 C4.8 2.5 4.8 3.5 4.8 4.5 C7.5 5.1 9.9 5.5 12.8 5.5 C12.8 6.2 12.8 6.8 12.8 7.5 C14 7.6 15.3 7.7 16.6 7.8 C18.9 8 18.9 8 20.8 8.5 C22 10.5 22 10.5 22.8 12.5 C24.9 13.2 24.9 13.2 26.8 13.5 C26.8 14.2 26.8 14.8 26.8 15.5 C28.1 15.5 29.4 15.5 30.8 15.5 C30.8 16.2 30.8 16.8 30.8 17.5 C35.7 19.3 40.5 20.8 45.8 21.5 C45.4 22.5 45.1 23.5 44.8 24.5 C45.1 24.5 45.1 24.5 46.8 24.8 C50.4 25.7 53.3 27.2 56.5 28.9 C60.6 31 64.6 32.9 69.1 34.3 C70.3 34.7 71.5 35.1 72.8 35.5 C73.1 36.2 73.4 36.8 73.8 37.5 C76.1 38.2 78.4 38.8 80.8 39.5 C82.8 40.5 84.8 41.5 86.8 42.5 C87.7 42.5 88.7 42.5 89.8 42.5 C90.4 43.2 91.1 43.8 91.8 44.5 C92.4 44.5 93.1 44.5 93.8 44.5 C93.8 45.2 93.8 45.8 93.8 46.5 C94.4 46.5 95.1 46.5 95.8 46.5 C95.8 47.2 95.8 47.8 95.8 48.5 C96.5 48.6 97.3 48.8 98.1 48.9 C100.8 49.5 100.8 49.5 102.8 50.5 C102.8 51.2 102.8 51.8 102.8 52.5 C104.4 52.5 106 52.5 107.8 52.5 C107.8 53.5 107.8 54.5 107.8 55.5 C112 57.4 116.2 58.4 120.8 59.5 C120.8 60.2 120.8 60.8 120.8 61.5 C121.6 61.7 121.6 61.7 125.8 62.5 C126.1 63.5 126.4 64.5 126.8 65.5 C127.2 65.5 127.2 65.5 129.3 65.6 C130.4 65.7 131.4 65.8 132.6 65.9 C133.1 65.9 133.1 65.9 135.8 66.1 C138.8 66.5 138.8 66.5 141.8 68.5 C142.4 68.8 143.1 69.2 143.8 69.5 C144.1 69.7 144.1 69.7 145.6 70.5 C147.7 71.5 149.6 72 151.8 72.5 C152.1 73.8 152.4 75.1 152.8 76.5 C156.4 77.2 160 77.8 163.8 78.5 C163.8 79.5 163.8 80.5 163.8 81.5 C164.5 81.8 165.3 82.1 166.1 82.4 C168.8 83.5 168.8 83.5 170.8 85.5 C173.4 86.1 173.4 86.1 175.8 86.5 C175.8 87.5 175.8 88.5 175.8 89.5 C176.7 89.8 177.6 90.1 178.6 90.4 C184.8 92.5 184.8 92.5 185.8 94.5 C186.1 93.5 186.4 92.5 186.8 91.5 C187.1 92.3 187.4 93.1 187.7 94 C189.8 96.5 189.8 96.5 192 96.8 C194.2 96.8 196.5 96.7 198.8 96.5 C199.4 97.8 200.1 99.1 200.8 100.5 C203.1 100.2 205.4 99.8 207.8 99.5 C207.8 100.1 207.9 100.7 208 101.4 C208.8 103.5 208.8 103.5 210.5 104.6 C211.2 104.8 211.9 105.1 212.7 105.4 C217.2 107.2 221.2 109.5 225.4 112.1 C227.8 113.5 227.8 113.5 230.3 114.5 C232.6 115.4 234.2 116.4 236.1 117.9 C239.5 120.4 242.8 122 246.8 123.5 C246.8 124.2 246.8 124.8 246.8 125.5 C248.5 126 250.2 126.5 252 126.9 C253 127.2 253.9 127.5 255 127.7 C255.9 128 256.8 128.2 257.8 128.5 C258.5 128.7 259.2 128.9 260 129.2 C261.8 129.5 261.8 129.5 263.8 128.5 C263.8 128.8 263.8 128.8 263.9 130.4 C264.8 132.5 264.8 132.5 266.8 133.6 C269.2 134.3 271.5 134.9 273.9 135.4 C277.8 136.5 277.8 136.5 279.8 139.5 C280.3 139.3 280.9 139 281.5 138.8 C282.2 138.7 283 138.6 283.8 138.5 C284.3 139.1 284.8 139.7 285.4 140.3 C289 143.6 293 143.8 297.8 144.5 C297.4 145.5 297.1 146.5 296.8 147.5 C297.1 147.6 297.1 147.6 298.7 148.2 C300.8 149.5 300.8 149.5 301.6 151.6 C301.8 152.4 301.9 153.2 302.1 154 C302.2 154.8 302.4 155.6 302.6 156.4 C302.8 158.5 302.8 158.5 301.8 160.5 C302.4 160.5 303.1 160.5 303.8 160.5 C303.8 161.2 303.8 161.8 303.8 162.5 C303.1 162.5 302.4 162.5 301.8 162.5 C301.5 186.2 301.5 186.2 305.8 194.5 C306.2 200 306.3 207.4 303.8 212.5 C304.1 213.5 304.4 214.5 304.8 215.5 C304.8 217.7 304.9 219.9 304.9 222.1 C304.9 223.3 304.9 224.5 304.9 225.7 C304.8 228.4 304.6 231 304.2 233.7 C303.7 238.3 303.6 242.8 303.6 247.5 C303.6 248.3 303.6 249.1 303.6 250 C303.6 251.7 303.6 253.4 303.6 255.1 C303.6 257.7 303.6 260.3 303.6 262.9 C303.6 264.6 303.6 266.2 303.6 267.9 C303.6 268.7 303.6 269.5 303.6 270.3 C303.6 273.4 303.7 276.3 304.2 279.5 C304.9 283.6 304.9 287.6 304.9 291.8 C304.9 292.7 304.9 293.6 304.9 294.6 C304.9 296.5 304.9 298.4 304.9 300.3 C304.9 303.1 304.9 306 304.9 308.8 C304.9 319.4 304.6 329.9 304 340.5 C303.7 345.5 303.7 350.5 303.8 355.5 C303.8 358.5 303.8 361.5 303.8 364.5 C303.1 364.5 302.4 364.5 301.8 364.5 C302.1 365.7 302.4 366.9 302.8 368.1 C303.9 372.8 304.7 377.3 302.8 381.9 C302.4 382.5 302.1 383 301.8 383.5 C302.4 383.8 303.1 384.2 303.8 384.5 C303.7 384.8 303.7 384.8 303.7 386.6 C303.7 387.5 303.7 388.4 303.7 389.3 C303.7 389.8 303.7 389.8 303.7 392 C303.8 394.5 303.8 394.5 304.8 397.5 C304.4 398.6 304.1 399.8 303.8 400.9 C302.8 404.2 302.5 405.4 303.8 408.5 C303.1 408.5 302.4 408.5 301.8 408.5 C301.8 409.2 301.8 409.8 301.8 410.5 C302.4 410.8 303.1 411.2 303.8 411.5 C303.8 441.8 303.8 472.2 303.8 502.5 C303.1 502.5 302.4 502.5 301.8 502.5 C301.9 503.3 302.1 504.1 302.3 505 C302.8 509.1 302.4 512.4 301.8 516.5 C302.4 516.8 303.1 517.2 303.8 517.5 C303.1 518.5 302.4 519.5 301.8 520.5 C302.4 520.5 303.1 520.5 303.8 520.5 C303.6 521.4 303.4 522.4 303.2 523.4 C302.8 526.5 302.8 526.5 303.8 528.5 C303.1 528.5 302.4 528.5 301.8 528.5 C302.2 532 302.6 535.2 303.8 538.5 C303.1 538.5 302.4 538.5 301.8 538.5 C301.8 539.8 301.8 541.1 301.8 542.5 C302.4 542.5 303.1 542.5 303.8 542.5 C303.7 543.1 303.7 543.1 303.3 545.9 C302.7 550.6 302.6 555.2 302.7 559.9 C302.7 560.8 302.7 561.6 302.7 562.5 C302.7 565.3 302.7 568 302.8 570.8 C302.8 574.4 302.8 578 302.8 581.6 C302.8 582.5 302.8 583.3 302.8 584.2 C302.8 584.9 302.8 585.7 302.8 586.5 C302.9 587.2 302.9 587.9 302.9 588.6 C302.7 590.6 302.3 592.5 301.8 594.5 C302.7 594.8 303.7 595.2 304.8 595.5 C304.1 595.8 303.4 596.2 302.8 596.5 C302.4 603.1 302.1 609.7 301.8 616.5 C302.4 616.5 303.1 616.5 303.8 616.5 C303.8 617.8 303.8 619.1 303.8 620.5 C303.1 620.5 302.4 620.5 301.8 620.5 C301.9 621.6 302.1 622.7 302.3 623.8 C302.8 627.5 302.8 627.5 301.8 630.5 C302.4 630.5 303.1 630.5 303.8 630.5 C303.7 631.6 303.6 632.7 303.5 633.9 C303.4 635.3 303.3 636.8 303.2 638.2 C303.1 639 303.1 639.7 303 640.5 C302.8 644 302.8 647.1 303.8 650.5 C303.4 650.5 303.1 650.5 302.8 650.5 C302.8 653.1 302.8 655.8 302.8 658.5 C303.1 658.5 303.4 658.5 303.8 658.5 C303.8 661.8 303.8 665.1 303.8 668.4 C303.8 669.4 303.8 670.3 303.8 671.3 C303.8 672.2 303.8 673.1 303.8 674 C303.9 674.9 303.9 675.7 303.9 676.6 C303.8 678.5 303.8 678.5 302.8 679.5 C303.1 680.5 303.4 681.5 303.8 682.5 C303.1 682.5 302.4 682.5 301.8 682.5 C301.9 683.7 302.1 685 302.2 686.2 C302.8 690 302.8 693.7 302.7 697.5 C302.7 698.5 302.7 699.6 302.7 700.7 C302.7 701.2 302.7 701.2 302.7 703.9 C302.8 706.5 302.8 706.5 303.8 707.5 C303.8 709.7 303.8 711.9 303.8 714.1 C303.8 715.3 303.8 716.5 303.8 717.7 C303.8 718.6 303.8 719.5 303.8 720.5 C303.1 720.5 302.4 720.5 301.8 720.5 C301.8 722.5 301.8 724.5 301.8 726.5 C301.1 726.5 300.4 726.5 299.8 726.5 C299.1 728.5 298.4 730.5 297.8 732.5 C296.8 732.5 295.8 732.5 294.8 732.5 C294.4 733.8 294.1 735.1 293.8 736.5 C293 736.6 292.2 736.6 291.4 736.7 C290.5 736.8 289.5 736.9 288.4 736.9 C287.5 737 286.5 737.1 285.4 737.2 C282.8 737.5 282.8 737.5 279.8 738.5 C279.8 737.8 279.8 737.2 279.8 736.5 C279 736.7 278.2 736.8 277.4 737 C274.8 737.5 274.8 737.5 271.8 737.5 C271.8 738.5 271.8 739.5 271.8 740.5 C271.4 740.5 271.4 740.5 269.9 740.4 C269.1 740.4 268.3 740.4 267.4 740.4 C267 740.4 267 740.4 265 740.3 C262.8 740.5 262.8 740.5 259.8 742.5 C259.8 741.8 259.8 741.2 259.8 740.5 C258.1 740.8 256.5 741.2 254.8 741.5 C254.4 742.5 254.1 743.5 253.8 744.5 C249.8 745.3 245.8 745.9 241.8 746.5 C241.8 747.2 241.8 747.8 241.8 748.5 C233.5 751.4 233.5 751.4 229.8 752.1 C227.8 752.5 227.8 752.5 225.8 754.5 C225.8 753.8 225.8 753.2 225.8 752.5 C225 752.6 224.2 752.8 223.3 752.9 C222.3 753.1 221.2 753.3 220.1 753.4 C219.1 753.6 218 753.8 217 754 C213.9 754.5 210.8 755 207.8 755.5 C207.8 756.2 207.8 756.8 207.8 757.5 C206.9 757.5 206 757.6 205.1 757.6 C203.9 757.7 202.8 757.8 201.6 757.9 C200.4 757.9 199.3 758 198.1 758.1 C194.9 758.5 192.6 759.3 189.8 760.5 C188.8 760.5 187.8 760.5 186.8 760.5 C186.8 761.2 186.8 761.8 186.8 762.5 C184.7 763 182.7 763.5 180.6 764 C178.7 764.4 176.7 765 174.8 765.5 C174.4 766.2 174.1 766.8 173.8 767.5 C171.5 767.8 171.5 767.8 168.8 768 C164 768.3 164 768.3 161.8 770.5 C158.8 771.5 155.8 772 152.8 772.7 C152 772.9 151.2 773.1 150.3 773.3 C149.9 773.4 149.9 773.4 147.9 773.8 C147.5 773.9 147.5 773.9 145.7 774.3 C143.8 774.5 143.8 774.5 140.8 773.5 C140.4 774.5 140.1 775.5 139.8 776.5 C137.8 776.4 135.8 776.4 133.9 776.3 C131.4 776.5 129.9 777.4 127.8 778.5 C126.2 778.8 124.7 779.1 123.1 779.4 C119.3 780.1 116 781.1 112.5 782.6 C108.7 784.2 105.9 784.7 101.8 784.5 C101.1 785.2 100.4 785.8 99.8 786.5 C97.2 786.8 94.8 786.9 92.3 787.1 C89.8 787.5 89.8 787.5 87.9 789 C84.9 791.1 82.6 791 79 791.2 C77.8 791.3 76.7 791.3 75.5 791.4 C74.6 791.4 73.7 791.5 72.8 791.5 C73.1 792.5 73.4 793.5 73.8 794.5 C73.1 794.5 72.4 794.5 71.8 794.5 C71.8 793.8 71.8 793.2 71.8 792.5 C70.4 792.8 69.1 793.2 67.8 793.5 C67.8 794.5 67.8 795.5 67.8 796.5 C67.1 796.5 66.4 796.5 65.8 796.5 C65.4 795.8 65.1 795.2 64.8 794.5 C64.1 794.5 63.4 794.5 62.8 794.5 C62.4 795.2 62.1 795.8 61.8 796.5 C59.8 796.5 57.8 796.5 55.8 796.5 C55.8 797.2 55.8 797.8 55.8 798.5 C55.2 798.6 55.2 798.6 52.6 798.9 C49.1 799.4 46.1 800.3 42.8 801.5 C40 802.3 37.2 803 34.4 803.7 C31.7 804.5 31.7 804.5 29.3 805.5 C26.5 806.6 23.9 807 21 807.4 C16.6 808.1 12.6 809.1 8.4 810.6 C4.7 811.8 1 812.6 -2.8 813.5 C-10.1 815.2 -17.2 817.1 -24.1 820.2 C-27.2 821.5 -27.2 821.5 -30.2 820.5 C-30.2 821.2 -30.2 821.8 -30.2 822.5 C-30.8 822.6 -30.8 822.6 -33.4 822.9 C-36.9 823.4 -40 824.2 -43.2 825.5 C-43.6 826.2 -43.9 826.8 -44.2 827.5 C-46.1 827.8 -46.1 827.8 -48.5 828 C-51.3 828.2 -53.2 828.5 -55.8 829.6 C-59.4 830.9 -62.5 830.6 -66.2 830.5 C-66.2 831.2 -66.2 831.8 -66.2 832.5 C-66.8 832.6 -66.8 832.6 -69.4 832.9 C-73.9 833.6 -77 834.3 -80.2 837.5 C-82.3 837.8 -82.3 837.8 -84.6 838 C-88 838.2 -90.2 839 -93.2 840.5 C-94.2 840.5 -95.2 840.5 -96.2 840.5 C-96.9 841.2 -97.6 841.8 -98.2 842.5 C-100.4 842.9 -102.5 843.2 -104.7 843.5 C-110.9 844.3 -110.9 844.3 -114.2 846.5 C-115.6 846.5 -116.9 846.5 -118.2 846.5 C-118.2 847.2 -118.2 847.8 -118.2 848.5 C-125.9 849.5 -125.9 849.5 -129.2 849.5 C-131.6 849.8 -133.9 850.1 -136.2 850.5 C-136.2 851.2 -136.2 851.8 -136.2 852.5 C-136.9 852.5 -137.6 852.5 -138.2 852.5 C-138.6 853.2 -138.9 853.8 -139.2 854.5 C-139.8 854.3 -140.4 854.1 -141 853.9 C-143.5 853.5 -144.9 853.6 -147.2 854.5 C-147.6 855.2 -147.9 855.8 -148.2 856.5 C-149.2 856.2 -150.2 855.8 -151.2 855.5 C-152.9 855.9 -154.6 856.4 -156.2 856.9 C-158.3 857.5 -160.4 858 -162.6 858.5 C-163.3 858.7 -164.1 858.8 -164.8 859 C-166.3 859.3 -167.9 859.7 -169.4 860 C-175 861.3 -175 861.3 -177.2 863.5 C-178.6 863.5 -179.9 863.5 -181.2 863.5 C-181.9 864.5 -182.6 865.5 -183.2 866.5 C-185.9 866.5 -187.8 866.2 -190.2 865.5 C-190.6 866.2 -190.9 866.8 -191.2 867.5 C-192.2 867.2 -193.2 866.8 -194.2 866.5 C-194.2 867.8 -194.2 869.1 -194.2 870.5 C-195.6 870.5 -196.9 870.5 -198.2 870.5 C-198.2 869.8 -198.2 869.2 -198.2 868.5 C-198.9 868.5 -199.6 868.5 -200.2 868.5 C-200.6 869.2 -200.9 869.8 -201.2 870.5 C-203.5 871.1 -203.5 871.1 -206.2 871.5 C-211 872.3 -211 872.3 -213.2 874.5 C-214.6 874.5 -215.9 874.5 -217.2 874.5 C-217.6 875.2 -217.9 875.8 -218.2 876.5 C-218.9 876.5 -219.6 876.5 -220.2 876.5 C-220.2 875.8 -220.2 875.2 -220.2 874.5 C-222.9 875.1 -225.5 875.7 -228.1 876.4 C-228.9 876.5 -229.6 876.7 -230.4 876.9 C-236 878.3 -236 878.3 -238.2 880.5 C-239.6 880.5 -240.9 880.5 -242.2 880.5 C-242.2 881.2 -242.2 881.8 -242.2 882.5 C-244 882.8 -245.7 883.2 -247.5 883.5 C-248.5 883.7 -249.4 883.9 -250.5 884.1 C-253.2 884.5 -253.2 884.5 -257.2 884.5 C-257.6 885.2 -257.9 885.8 -258.2 886.5 C-259 886.5 -259.7 886.5 -260.5 886.4 C-264.4 886.5 -267.5 887.6 -271.1 889.1 C-275 890.6 -278.1 890.8 -282.2 890.5 C-282.6 891.2 -282.9 891.8 -283.2 892.5 C-283.9 892.8 -284.6 893.2 -285.2 893.5 C-285.6 894.2 -285.9 894.8 -286.2 895.5 C-286.6 895.5 -286.6 895.5 -288.5 895.5 C-289.5 895.5 -290.4 895.4 -291.4 895.4 C-292.4 895.4 -293.4 895.4 -294.4 895.4 C-297.1 895.5 -299.6 895.7 -302.2 896.5 C-303.6 898.6 -303.6 898.6 -304.2 900.5 C-312 900.6 -312 900.6 -314.2 899.5 C-314.2 900.5 -314.2 901.5 -314.2 902.5 C-314.9 902.5 -315.6 902.5 -316.2 902.5 C-316.2 901.5 -316.2 900.5 -316.2 899.5 C-317.7 900 -319.2 900.4 -320.6 900.9 C-321 901 -321 901 -323.1 901.6 C-325.2 902.5 -325.2 902.5 -327.2 904.5 C-328.3 904.6 -329.3 904.8 -330.4 904.9 C-333.5 905.4 -335.7 906 -338.6 907.1 C-339.2 907.4 -339.2 907.4 -342.2 908.5 C-342.9 908.2 -343.6 907.8 -344.2 907.5 C-344.2 908.5 -344.2 909.5 -344.2 910.5 C-344.7 910.5 -344.7 910.5 -346.9 910.4 C-350.3 910.5 -350.3 910.5 -352.7 911 C-355.2 911.5 -355.2 911.5 -358.6 911.4 C-362.3 911.5 -362.3 911.5 -365.4 912.4 C-374.9 915.1 -384.2 915.6 -393 911.1 C-395.5 909.7 -398 908.3 -400.2 906.5 C-400.2 905.8 -400.2 905.2 -400.2 904.5 C-401.6 904.5 -402.9 904.5 -404.2 904.5 C-405.7 902.3 -405.7 902.3 -407.2 899.5 C-412 893.6 -417.6 892 -424.8 891 C-428.3 890.5 -431 889.5 -434.3 888.2 C-436.3 887.5 -436.3 887.5 -439.9 886.6 C-443.2 885.5 -443.2 885.5 -445.5 883.1 C-448.5 880.3 -451.1 878.9 -454.9 877.2 C-456 876.7 -457.1 876.2 -458.3 875.6 C-461.2 874.5 -461.2 874.5 -464.2 874.5 C-464.2 873.8 -464.2 873.2 -464.2 872.5 C-464.9 872.3 -465.6 872 -466.2 871.8 C-469.6 870.4 -472.4 868.5 -475.4 866.4 C-477.2 865.5 -477.2 865.5 -480.2 866.5 C-480.9 865.7 -481.5 865 -482.2 864.2 C-485.1 861.2 -488.3 860.3 -492.4 859.2 C-494.2 858.5 -494.2 858.5 -495.2 856.5 C-497.2 855.8 -499.1 855.1 -501 854.4 C-504.7 852.9 -507.9 850.7 -511.2 848.5 C-517.4 844.5 -523.2 841.6 -530.2 839.5 C-531.9 838.9 -533.6 838.2 -535.2 837.5 C-535.2 836.8 -535.2 836.2 -535.2 835.5 C-536.7 835 -536.7 835 -544.2 832.5 C-544.2 831.8 -544.2 831.2 -544.2 830.5 C-545.2 830.4 -546.2 830.3 -547.2 830.2 C-551.7 829.6 -555.9 828.1 -560.2 826.5 C-560.2 825.8 -560.2 825.2 -560.2 824.5 C-561.9 824.2 -563.5 823.8 -565.2 823.5 C-565.2 822.8 -565.2 822.2 -565.2 821.5 C-566.6 821.5 -567.9 821.5 -569.2 821.5 C-575.3 815.5 -575.3 815.5 -576.9 813.8 C-578.2 812.5 -578.2 812.5 -580.2 812.5 C-580.6 811.2 -580.9 809.9 -581.2 808.5 C-588.7 807.5 -588.7 807.5 -592.4 807.7 C-596.2 807.4 -598.1 805.7 -601.2 803.5 C-603.6 802.5 -605.9 801.5 -608.2 800.5 C-609.6 799.8 -610.9 799.2 -612.2 798.5 C-612.2 797.8 -612.2 797.2 -612.2 796.5 C-613.9 796.2 -615.5 795.8 -617.2 795.5 C-617.2 794.8 -617.2 794.2 -617.2 793.5 C-617.9 793.5 -618.6 793.6 -619.3 793.6 C-622.8 793.5 -625.9 792.6 -629.2 791.5 C-629.2 790.8 -629.2 790.2 -629.2 789.5 C-630 789.3 -630.8 789 -631.6 788.8 C-634.5 787.4 -635.6 786.3 -637.2 783.5 C-637.2 782.8 -637.2 782.2 -637.2 781.5 C-637.8 781.2 -638.4 781 -638.9 780.7 C-641.3 779.5 -641.3 779.5 -643.8 777.9 C-646.3 776.5 -646.3 776.5 -650.2 776.5 C-650.2 775.8 -650.2 775.2 -650.2 774.5 C-651.1 774.6 -652 774.6 -652.9 774.7 C-656.6 774.5 -658.2 773.5 -661.2 771.5 C-662.2 771.5 -663.2 771.5 -664.2 771.5 C-664.9 770.8 -665.6 770.2 -666.2 769.5 C-668.2 769.9 -668.2 769.9 -670.2 770.5 C-670.9 770.5 -671.6 770.5 -672.2 770.5 C-672.2 769.5 -672.2 768.5 -672.2 767.5 C-672.6 767.4 -672.6 767.4 -674.2 767.2 C-674.9 767 -675.5 766.7 -676.2 766.5 C-676.4 766 -676.4 766 -677.2 763.5 C-678.9 763.2 -680.5 762.8 -682.2 762.5 C-685 755.7 -684.4 748.7 -683.2 741.5 C-682.6 740.8 -681.9 740.2 -681.2 739.5 C-681 737.2 -681 737.2 -681 734.3 C-681 733.3 -681 732.2 -681 731.1 C-681 730 -681 728.9 -681 727.8 C-681 727.3 -681 727.3 -681 724.5 C-681 723.5 -681 722.4 -681 721.4 C-681 720.4 -681 719.5 -681 718.5 C-681.2 715.5 -681.2 715.5 -682.2 712.3 C-683.5 707.6 -683.7 703.3 -683.9 698.5 C-683.9 697.5 -683.9 696.5 -684 695.4 C-684.5 680.4 -684.4 665.3 -684.4 650.3 C-684.4 645.9 -684.4 641.5 -684.4 637.1 C-684.4 633.7 -684.4 630.2 -684.4 626.8 C-684.4 625.2 -684.4 623.6 -684.4 621.9 C-684.4 619.7 -684.4 617.5 -684.4 615.2 C-684.4 613.9 -684.4 612.7 -684.4 611.3 C-684.2 608.5 -684.2 608.5 -683.2 607.5 C-683.1 605.6 -683.1 603.6 -683.1 601.7 C-683.1 600.4 -683.1 599.2 -683.1 598 C-683.1 596.7 -683.1 595.3 -683.1 594 C-683.1 593.3 -683.1 592.7 -683.1 592 C-683.1 583.3 -683.4 574.6 -684 565.9 C-684.8 552.3 -684.9 538.3 -683.4 524.7 C-683.2 522.5 -683.2 522.5 -684.2 519.5 C-684 517.5 -683.8 515.6 -683.5 513.7 C-683.1 510.3 -683.4 507.1 -683.7 503.8 C-684.4 493.7 -684.4 483.7 -684.3 473.6 C-684.3 471.7 -684.3 469.9 -684.3 468.1 C-684.3 463.5 -684.3 459 -684.2 454.5 C-684.2 453.8 -684.2 453.2 -684.2 452.5 C-684.2 409.2 -684.2 365.8 -684.2 322.5 C-683.6 322.5 -682.9 322.5 -682.2 322.5 C-682.2 321.2 -682.2 319.9 -682.2 318.5 C-682.9 318.5 -683.6 318.5 -684.2 318.5 C-684.2 317.8 -684.2 317.1 -684.2 316.4 C-684.1 309.3 -683.9 302.2 -683.8 295 C-683.7 292.4 -683.7 289.7 -683.6 287.1 C-683 260.2 -683 260.2 -684.1 248.5 C-684.3 245.4 -683.8 242.6 -683.2 239.5 C-683.5 238.5 -683.7 237.5 -683.9 236.5 C-684.2 233.5 -684.2 233.5 -682.3 230.8 C-679.9 226.9 -679.7 224.1 -679.9 219.7 C-679.9 219 -679.9 218.2 -679.9 217.5 C-679.9 215.2 -679.9 212.9 -680 210.6 C-680 209.1 -680 207.5 -680.1 205.9 C-680.1 202.1 -680.2 198.3 -680.2 194.5 C-680.9 194.5 -681.6 194.5 -682.2 194.5 C-683.3 192.1 -683.3 192.1 -684.2 189.5 C-684.1 189.2 -684.1 189.2 -683.2 187.5 C-682.6 187.5 -681.9 187.5 -681.2 187.5 C-680.9 186.5 -680.6 185.5 -680.2 184.5 C-679.6 184.2 -678.9 183.8 -678.2 183.5 C-678.2 182.8 -678.2 182.2 -678.2 181.5 C-677.5 181.4 -676.8 181.3 -676 181.2 C-673.2 180.5 -673.2 180.5 -671.5 179.1 C-668.5 177 -665.8 176.6 -662.2 175.9 C-661 175.6 -659.8 175.4 -658.6 175.1 C-658 175 -658 175 -655.2 174.5 C-654.5 174.3 -653.8 174.1 -653.1 173.9 C-651 173.4 -649 173.2 -646.9 173.1 C-642.8 172.6 -639.2 171.8 -635.2 170.5 C-634.9 170.8 -634.6 171.2 -634.2 171.5 C-633.6 170.5 -632.9 169.5 -632.2 168.5 C-630.3 168.2 -630.3 168.2 -628.1 168.3 C-626.8 168.4 -625.6 168.4 -624.2 168.5 C-624.2 167.8 -624.2 167.2 -624.2 166.5 C-622.9 166.5 -621.6 166.5 -620.2 166.5 C-620.2 165.8 -620.2 165.2 -620.2 164.5 C-619.3 164.3 -618.4 164.1 -617.4 163.9 C-616.2 163.6 -615 163.3 -613.8 163.1 C-612.6 162.8 -611.4 162.5 -610.2 162.3 C-607.2 161.5 -607.2 161.5 -606.2 160.5 C-605.4 160.5 -604.6 160.6 -603.8 160.6 C-600.2 160.5 -597.5 159.7 -594.2 158.5 C-590.2 157.1 -586.1 156 -582 154.9 C-581.2 154.7 -580.4 154.4 -579.6 154.2 C-575 152.9 -570.5 151.9 -565.8 151.1 C-563.1 150.5 -560.8 149.6 -558.2 148.5 C-552.9 146.7 -547.4 145.5 -541.9 144.3 C-541.1 144.1 -540.3 144 -539.4 143.8 C-537.2 143.5 -537.2 143.5 -534.2 144.5 C-533.9 143.5 -533.6 142.5 -533.2 141.5 C-530.6 141.5 -528 141.5 -525.2 141.5 C-524.9 140.5 -524.6 139.5 -524.2 138.5 C-521.6 137.5 -521.6 137.5 -518.4 136.8 C-517.8 136.6 -517.8 136.6 -515.1 136 C-512.2 135.5 -512.2 135.5 -509.2 136.5 C-509.2 135.8 -509.2 135.2 -509.2 134.5 C-504.8 132.8 -500.3 131.8 -495.6 131 C-494.1 130.7 -492.6 130.3 -491.2 129.9 C-488.2 129.3 -485.3 129.4 -482.2 129.5 C-481.9 128.8 -481.6 128.2 -481.2 127.5 C-479.6 127.1 -477.9 126.8 -476.2 126.5 C-473.9 125.8 -471.6 125.2 -469.2 124.5 C-455.6 120.5 -455.6 120.5 -450 119.4 C-446.2 118.5 -446.2 118.5 -444.2 116.5 C-442 115.9 -442 115.9 -439.3 115.4 C-438.4 115.2 -437.6 115 -436.7 114.9 C-434.2 114.5 -431.8 114.5 -429.2 114.5 C-429.2 113.8 -429.2 113.2 -429.2 112.5 C-428.5 112.4 -427.7 112.3 -426.9 112.2 C-421.9 111.5 -417.4 110.8 -412.8 108.5 C-408.1 106.1 -403.3 105.6 -398.1 105 C-395.2 104.5 -395.2 104.5 -392.2 102.5 C-391.3 102.5 -390.3 102.5 -389.2 102.5 C-382.7 101.9 -382.7 101.9 -380.8 100 C-378.9 98.2 -377.6 97.9 -375 97.3 C-374.2 97.2 -373.4 97 -372.6 96.8 C-371.8 96.6 -370.9 96.5 -370.1 96.3 C-369.6 96.2 -369.6 96.2 -367.5 95.8 C-365.4 95.3 -363.3 94.9 -361.2 94.5 C-360.9 95.2 -360.6 95.8 -360.2 96.5 C-359.6 96.2 -358.9 95.8 -358.2 95.5 C-358.6 94.8 -358.9 94.2 -359.2 93.5 C-358.8 93.4 -358.8 93.4 -356.4 93.2 C-355.2 93 -353.9 92.9 -352.6 92.7 C-352 92.6 -352 92.6 -348.9 92.2 C-345.2 91.5 -342.6 90.2 -339.2 88.5 C-336.9 88.1 -334.6 87.8 -332.2 87.5 C-331.9 87.2 -331.6 86.8 -331.2 86.5 C-329.6 86.5 -327.9 86.5 -326.2 86.5 C-326.2 85.5 -326.2 84.5 -326.2 83.5 C-324.3 83.3 -324.3 83.3 -314.2 82.5 C-314.2 81.8 -314.2 81.2 -314.2 80.5 C-313.3 80.6 -312.3 80.6 -311.2 80.7 C-306.7 80.7 -303.3 79.4 -299.2 77.5 C-298.9 76.5 -298.6 75.5 -298.2 74.5 C-294.9 74.4 -292.4 74.4 -289.2 75.5 C-288.9 75.2 -288.6 74.8 -288.2 74.5 C-286.3 74.5 -284.2 74.5 -282.2 74.5 C-282.2 73.8 -282.2 73.2 -282.2 72.5 C-282 72.4 -282 72.4 -280.5 72.2 C-276.8 71.4 -273.6 70.7 -270.2 69 C-267.5 67.6 -265.6 67.1 -262.6 66.5 C-259.8 65.9 -258.5 65.7 -256.2 63.9 C-253.6 62 -251.4 62.4 -248.3 62.5 C-245.1 62.5 -242.3 61.5 -239.2 60.5 C-236.2 59.5 -236.2 59.5 -233.2 60.5 C-232.9 59.5 -232.6 58.5 -232.2 57.5 C-231.8 57.5 -231.8 57.5 -229.6 57.7 C-226.2 57.5 -226.2 57.5 -223.8 56 C-220.5 54 -218.1 54.5 -214.2 54.5 C-211.9 53.9 -209.6 53.1 -207.4 52.3 C-205.2 51.5 -205.2 51.5 -203 51 C-202.5 50.9 -201.9 50.7 -201.2 50.5 C-200.9 49.8 -200.6 49.2 -200.2 48.5 C-199.5 48.7 -198.8 48.9 -198.1 49.1 C-194.8 49.6 -193.2 49 -190.2 47.5 C-189.6 46.8 -188.9 46.2 -188.2 45.5 C-186.9 45.5 -185.6 45.5 -184.2 45.5 C-182.1 45.2 -179.9 44.9 -177.7 44.6 C-176.6 44.4 -175.4 44.2 -174.2 44 C-171.2 43.5 -171.2 43.5 -168.2 42.5 C-167.9 41.8 -167.6 41.2 -167.2 40.5 C-163.7 39.3 -160.4 38.5 -156.8 38.1 C-152.9 37.4 -149.8 36.1 -146.2 34.5 C-140.1 32.6 -134.7 32.3 -128.2 32.5 C-128.2 31.8 -128.2 31.2 -128.2 30.5 C-124.8 28.4 -122.2 28.3 -118.2 28.5 C-118.2 27.8 -118.2 27.2 -118.2 26.5 C-113.7 24.7 -110.1 24.5 -105.2 24.5 C-104.6 23.8 -103.9 23.2 -103.2 22.5 C-101.9 22.5 -100.6 22.5 -99.2 22.5 C-97.4 21.9 -95.6 21.3 -93.8 20.6 C-92.8 20.3 -91.9 19.9 -90.9 19.6 C-88.2 18.5 -88.2 18.5 -86 17.4 C-84.2 16.5 -84.2 16.5 -82.2 16.5 C-80.2 15.5 -78.2 14.5 -76.2 13.5 C-73.6 12.4 -71 11.4 -68.2 10.5 C-68.2 11.2 -68.2 11.8 -68.2 12.5 C-67.5 12.2 -66.7 11.8 -65.9 11.5 C-63.2 10.5 -63.2 10.5 -60.2 10.5 C-59.4 10.2 -58.5 9.9 -57.6 9.6 C-54.1 8.5 -50.7 7.7 -47.1 7.1 C-46.5 6.9 -45.9 6.7 -45.2 6.5 C-44.9 5.8 -44.6 5.2 -44.2 4.5 C-43.5 4.7 -42.8 4.9 -42 5.1 C-38.8 5.6 -38 5 -35.2 3.5 C-32.4 2.8 -29.7 2.4 -26.8 2.1 C-23.2 1.5 -23.2 1.5 -20.9 -0 C-14.6 -3.5 -6.6 -1.8 0 0 Z M-70.2 12.5 C-69.9 13.2 -69.6 13.8 -69.2 14.5 C-68.9 13.8 -68.6 13.2 -68.2 12.5 C-68.9 12.5 -69.6 12.5 -70.2 12.5 Z M-75.2 13.5 C-75.2 14.2 -75.2 14.8 -75.2 15.5 C-74.6 15.5 -73.9 15.5 -73.2 15.5 C-73.2 14.8 -73.2 14.2 -73.2 13.5 C-73.9 13.5 -74.6 13.5 -75.2 13.5 Z M194.8 97.5 C194.8 98.2 194.8 98.8 194.8 99.5 C195.7 99.5 196.7 99.5 197.8 99.5 C197.8 98.8 197.8 98.2 197.8 97.5 C196.8 97.5 195.8 97.5 194.8 97.5 Z M302.8 194.5 C303.8 196.5 303.8 196.5 303.8 196.5 Z M-682.2 292.5 C-681.2 294.5 -681.2 294.5 -681.2 294.5 Z M301.8 419.5 C302.8 422.5 302.8 422.5 302.8 422.5 Z " fill="#EEB34B" transform="translate(1214.25,379.5)"/>
<path d="M0 0 C1.6 0.5 3.2 1 4.8 1.5 C4.8 2.5 4.8 3.5 4.8 4.5 C7.5 5.1 9.9 5.5 12.8 5.5 C12.8 6.2 12.8 6.8 12.8 7.5 C14 7.6 15.3 7.7 16.6 7.8 C18.9 8 18.9 8 20.8 8.5 C22 10.5 22 10.5 22.8 12.5 C24.9 13.2 24.9 13.2 26.8 13.5 C26.8 14.2 26.8 14.8 26.8 15.5 C28.1 15.5 29.4 15.5 30.8 15.5 C30.8 16.2 30.8 16.8 30.8 17.5 C35.7 19.3 40.5 20.8 45.8 21.5 C45.4 22.5 45.1 23.5 44.8 24.5 C45.1 24.5 45.1 24.5 46.8 24.8 C50.4 25.7 53.3 27.2 56.5 28.9 C60.6 31 64.6 32.9 69.1 34.3 C70.3 34.7 71.5 35.1 72.8 35.5 C73.1 36.2 73.4 36.8 73.8 37.5 C76.1 38.2 78.4 38.8 80.8 39.5 C82.8 40.5 84.8 41.5 86.8 42.5 C87.7 42.5 88.7 42.5 89.8 42.5 C90.4 43.2 91.1 43.8 91.8 44.5 C92.4 44.5 93.1 44.5 93.8 44.5 C93.8 45.2 93.8 45.8 93.8 46.5 C94.4 46.5 95.1 46.5 95.8 46.5 C95.8 47.2 95.8 47.8 95.8 48.5 C96.5 48.6 97.3 48.8 98.1 48.9 C100.8 49.5 100.8 49.5 102.8 50.5 C102.8 51.2 102.8 51.8 102.8 52.5 C104.4 52.5 106 52.5 107.8 52.5 C107.8 53.5 107.8 54.5 107.8 55.5 C112 57.4 116.2 58.4 120.8 59.5 C120.8 60.2 120.8 60.8 120.8 61.5 C121.6 61.7 121.6 61.7 125.8 62.5 C126.1 63.5 126.4 64.5 126.8 65.5 C127.2 65.5 127.2 65.5 129.3 65.6 C130.4 65.7 131.4 65.8 132.6 65.9 C133.1 65.9 133.1 65.9 135.8 66.1 C138.8 66.5 138.8 66.5 141.8 68.5 C142.4 68.8 143.1 69.2 143.8 69.5 C144.1 69.7 144.1 69.7 145.6 70.5 C147.7 71.5 149.6 72 151.8 72.5 C152.1 73.8 152.4 75.1 152.8 76.5 C156.4 77.2 160 77.8 163.8 78.5 C163.8 79.5 163.8 80.5 163.8 81.5 C164.5 81.8 165.3 82.1 166.1 82.4 C168.8 83.5 168.8 83.5 170.8 85.5 C173.4 86.1 173.4 86.1 175.8 86.5 C175.8 87.5 175.8 88.5 175.8 89.5 C176.7 89.8 177.6 90.1 178.6 90.4 C184.8 92.5 184.8 92.5 185.8 94.5 C186.1 93.5 186.4 92.5 186.8 91.5 C187.1 92.3 187.4 93.1 187.7 94 C189.8 96.5 189.8 96.5 192 96.8 C194.2 96.8 196.5 96.7 198.8 96.5 C199.4 97.8 200.1 99.1 200.8 100.5 C203.1 100.2 205.4 99.8 207.8 99.5 C207.8 100.1 207.9 100.7 208 101.4 C208.8 103.5 208.8 103.5 210.5 104.6 C211.2 104.8 211.9 105.1 212.7 105.4 C217.2 107.2 221.2 109.5 225.4 112.1 C227.8 113.5 227.8 113.5 230.3 114.5 C232.6 115.4 234.2 116.4 236.1 117.9 C239.5 120.4 242.8 122 246.8 123.5 C246.8 124.2 246.8 124.8 246.8 125.5 C248.5 126 250.2 126.5 252 126.9 C253 127.2 253.9 127.5 255 127.7 C255.9 128 256.8 128.2 257.8 128.5 C258.5 128.7 259.2 128.9 260 129.2 C261.8 129.5 261.8 129.5 263.8 128.5 C263.8 128.8 263.8 128.8 263.9 130.4 C264.8 132.5 264.8 132.5 266.8 133.6 C269.2 134.3 271.5 134.9 273.9 135.4 C277.8 136.5 277.8 136.5 279.8 139.5 C280.3 139.3 280.9 139 281.5 138.8 C282.2 138.7 283 138.6 283.8 138.5 C284.3 139.1 284.8 139.7 285.4 140.3 C289 143.6 293 143.8 297.8 144.5 C297.4 145.5 297.1 146.5 296.8 147.5 C297.1 147.6 297.1 147.6 298.7 148.2 C300.8 149.5 300.8 149.5 301.6 151.6 C301.8 152.4 301.9 153.2 302.1 154 C302.2 154.8 302.4 155.6 302.6 156.4 C302.8 158.5 302.8 158.5 301.8 160.5 C302.4 160.5 303.1 160.5 303.8 160.5 C303.8 161.2 303.8 161.8 303.8 162.5 C303.1 162.5 302.4 162.5 301.8 162.5 C301.5 186.7 301.5 186.7 305.8 194.5 C305.4 195.2 305.1 195.8 304.8 196.5 C304.1 196.5 303.4 196.5 302.8 196.5 C300.7 196.8 298.7 197.2 296.8 197.5 C296.7 198.4 296.7 199.3 296.6 200.3 C296.5 201.5 296.5 202.7 296.4 203.9 C296.3 204.5 296.3 204.5 296.2 207.5 C295.8 210.5 295.8 210.5 293.8 212.5 C293.8 207.5 293.8 202.6 293.8 197.5 C272.7 202.8 251.7 208.5 230.7 214.4 C213.7 219.1 196.7 223.8 179.7 228.5 C159.8 233.9 139.9 239.4 120 244.9 C100 250.5 80 256 60 261.4 C19.4 272.5 -21.1 283.7 -61.6 294.9 C-100.7 305.8 -139.8 316.6 -178.9 327.3 C-195.7 331.9 -212.4 336.5 -229.2 341.1 C-248 346.3 -266.8 351.5 -285.6 356.6 C-297.8 359.9 -309.9 363.2 -322 366.6 C-326.3 367.8 -330.6 369 -334.9 370.1 C-339 371.3 -343.1 372.4 -347.2 373.6 C-350.4 374.5 -353.6 375.3 -356.7 376.2 C-357.9 376.5 -359 376.8 -360.2 377.2 C-377.1 381.8 -377.1 381.8 -383.4 378.5 C-384.3 378 -385.1 377.6 -386 377.1 C-386.5 376.8 -386.5 376.8 -388.8 375.6 C-390.8 374.5 -392.7 373.5 -394.7 372.5 C-395.7 372 -396.6 371.4 -397.6 370.9 C-401 369.1 -404.4 367.4 -407.9 365.7 C-409.1 365.1 -410.4 364.4 -411.7 363.8 C-415.4 361.9 -419.1 360.1 -422.8 358.2 C-425.2 357 -427.6 355.8 -430.1 354.6 C-430.7 354.3 -431.3 354 -431.9 353.7 C-439.4 350 -446.8 346.2 -454.2 342.2 C-461.4 338.4 -468.7 334.8 -476.1 331.4 C-481.7 328.8 -487.3 325.9 -492.8 323 C-503.3 317.4 -514 312.1 -524.7 306.7 C-526.7 305.7 -528.7 304.7 -530.7 303.7 C-535.9 301.1 -541.1 298.6 -546.3 296 C-551.5 293.3 -556.8 290.7 -562.1 288.1 C-570.7 283.8 -579.3 279.5 -587.9 275.2 C-593.9 272.2 -600 269.1 -606 266.1 C-610.1 264.1 -614.2 262 -618.3 260 C-628.8 254.8 -639.3 249.5 -649.8 244 C-650.5 243.6 -651.3 243.2 -652 242.8 C-652.8 242.4 -653.5 242 -654.2 241.6 C-657.9 239.7 -661.6 237.8 -665.2 235.9 C-665.7 235.6 -665.7 235.6 -668 234.5 C-670.2 233.5 -670.2 233.5 -673.2 233.5 C-673.4 239.3 -673.5 245 -673.7 250.8 C-673.7 252.7 -673.8 254.7 -673.8 256.7 C-674.3 277.5 -674.3 277.5 -674.2 287.5 C-674.6 287.5 -674.9 287.5 -675.2 287.5 C-676 284.2 -676.4 281.1 -676.4 277.7 C-676.4 276.8 -676.4 275.8 -676.4 274.9 C-676.4 273.9 -676.4 272.9 -676.4 271.9 C-676.4 270.9 -676.4 269.9 -676.4 268.8 C-676.4 266.6 -676.4 264.5 -676.4 262.3 C-676.4 259 -676.4 255.7 -676.4 252.4 C-676.4 250.3 -676.4 248.2 -676.4 246.1 C-676.4 245.1 -676.4 244.1 -676.4 243.1 C-676.4 242.2 -676.4 241.3 -676.4 240.3 C-676.4 239.5 -676.4 238.7 -676.4 237.9 C-676.2 235.3 -675.8 233 -675.2 230.5 C-676.9 230.2 -678.5 229.8 -680.2 229.5 C-680.2 218 -680.2 206.4 -680.2 194.5 C-680.9 194.5 -681.6 194.5 -682.2 194.5 C-683.3 192.1 -683.3 192.1 -684.2 189.5 C-684.1 189.2 -684.1 189.2 -683.2 187.5 C-682.6 187.5 -681.9 187.5 -681.2 187.5 C-680.9 186.5 -680.6 185.5 -680.2 184.5 C-679.6 184.2 -678.9 183.8 -678.2 183.5 C-678.2 182.8 -678.2 182.2 -678.2 181.5 C-677.5 181.4 -676.8 181.3 -676 181.2 C-673.2 180.5 -673.2 180.5 -671.5 179.1 C-668.5 177 -665.8 176.6 -662.2 175.9 C-661 175.6 -659.8 175.4 -658.6 175.1 C-658 175 -658 175 -655.2 174.5 C-654.5 174.3 -653.8 174.1 -653.1 173.9 C-651 173.4 -649 173.2 -646.9 173.1 C-642.8 172.6 -639.2 171.8 -635.2 170.5 C-634.9 170.8 -634.6 171.2 -634.2 171.5 C-633.6 170.5 -632.9 169.5 -632.2 168.5 C-630.3 168.2 -630.3 168.2 -628.1 168.3 C-626.8 168.4 -625.6 168.4 -624.2 168.5 C-624.2 167.8 -624.2 167.2 -624.2 166.5 C-622.9 166.5 -621.6 166.5 -620.2 166.5 C-620.2 165.8 -620.2 165.2 -620.2 164.5 C-619.3 164.3 -618.4 164.1 -617.4 163.9 C-616.2 163.6 -615 163.3 -613.8 163.1 C-612.6 162.8 -611.4 162.5 -610.2 162.3 C-607.2 161.5 -607.2 161.5 -606.2 160.5 C-605.4 160.5 -604.6 160.6 -603.8 160.6 C-600.2 160.5 -597.5 159.7 -594.2 158.5 C-590.2 157.1 -586.1 156 -582 154.9 C-581.2 154.7 -580.4 154.4 -579.6 154.2 C-575 152.9 -570.5 151.9 -565.8 151.1 C-563.1 150.5 -560.8 149.6 -558.2 148.5 C-552.9 146.7 -547.4 145.5 -541.9 144.3 C-541.1 144.1 -540.3 144 -539.4 143.8 C-537.2 143.5 -537.2 143.5 -534.2 144.5 C-533.9 143.5 -533.6 142.5 -533.2 141.5 C-530.6 141.5 -528 141.5 -525.2 141.5 C-524.9 140.5 -524.6 139.5 -524.2 138.5 C-521.6 137.5 -521.6 137.5 -518.4 136.8 C-517.8 136.6 -517.8 136.6 -515.1 136 C-512.2 135.5 -512.2 135.5 -509.2 136.5 C-509.2 135.8 -509.2 135.2 -509.2 134.5 C-504.8 132.8 -500.3 131.8 -495.6 131 C-494.1 130.7 -492.6 130.3 -491.2 129.9 C-488.2 129.3 -485.3 129.4 -482.2 129.5 C-481.9 128.8 -481.6 128.2 -481.2 127.5 C-479.6 127.1 -477.9 126.8 -476.2 126.5 C-473.9 125.8 -471.6 125.2 -469.2 124.5 C-455.6 120.5 -455.6 120.5 -450 119.4 C-446.2 118.5 -446.2 118.5 -444.2 116.5 C-442 115.9 -442 115.9 -439.3 115.4 C-438.4 115.2 -437.6 115 -436.7 114.9 C-434.2 114.5 -431.8 114.5 -429.2 114.5 C-429.2 113.8 -429.2 113.2 -429.2 112.5 C-428.5 112.4 -427.7 112.3 -426.9 112.2 C-421.9 111.5 -417.4 110.8 -412.8 108.5 C-408.1 106.1 -403.3 105.6 -398.1 105 C-395.2 104.5 -395.2 104.5 -392.2 102.5 C-391.3 102.5 -390.3 102.5 -389.2 102.5 C-382.7 101.9 -382.7 101.9 -380.8 100 C-378.9 98.2 -377.6 97.9 -375 97.3 C-374.2 97.2 -373.4 97 -372.6 96.8 C-371.8 96.6 -370.9 96.5 -370.1 96.3 C-369.6 96.2 -369.6 96.2 -367.5 95.8 C-365.4 95.3 -363.3 94.9 -361.2 94.5 C-360.9 95.2 -360.6 95.8 -360.2 96.5 C-359.6 96.2 -358.9 95.8 -358.2 95.5 C-358.6 94.8 -358.9 94.2 -359.2 93.5 C-358.8 93.4 -358.8 93.4 -356.4 93.2 C-355.2 93 -353.9 92.9 -352.6 92.7 C-352 92.6 -352 92.6 -348.9 92.2 C-345.2 91.5 -342.6 90.2 -339.2 88.5 C-336.9 88.1 -334.6 87.8 -332.2 87.5 C-331.9 87.2 -331.6 86.8 -331.2 86.5 C-329.6 86.5 -327.9 86.5 -326.2 86.5 C-326.2 85.5 -326.2 84.5 -326.2 83.5 C-324.3 83.3 -324.3 83.3 -314.2 82.5 C-314.2 81.8 -314.2 81.2 -314.2 80.5 C-313.3 80.6 -312.3 80.6 -311.2 80.7 C-306.7 80.7 -303.3 79.4 -299.2 77.5 C-298.9 76.5 -298.6 75.5 -298.2 74.5 C-294.9 74.4 -292.4 74.4 -289.2 75.5 C-288.9 75.2 -288.6 74.8 -288.2 74.5 C-286.3 74.5 -284.2 74.5 -282.2 74.5 C-282.2 73.8 -282.2 73.2 -282.2 72.5 C-282 72.4 -282 72.4 -280.5 72.2 C-276.8 71.4 -273.6 70.7 -270.2 69 C-267.5 67.6 -265.6 67.1 -262.6 66.5 C-259.8 65.9 -258.5 65.7 -256.2 63.9 C-253.6 62 -251.4 62.4 -248.3 62.5 C-245.1 62.5 -242.3 61.5 -239.2 60.5 C-236.2 59.5 -236.2 59.5 -233.2 60.5 C-232.9 59.5 -232.6 58.5 -232.2 57.5 C-231.8 57.5 -231.8 57.5 -229.6 57.7 C-226.2 57.5 -226.2 57.5 -223.8 56 C-220.5 54 -218.1 54.5 -214.2 54.5 C-211.9 53.9 -209.6 53.1 -207.4 52.3 C-205.2 51.5 -205.2 51.5 -203 51 C-202.5 50.9 -201.9 50.7 -201.2 50.5 C-200.9 49.8 -200.6 49.2 -200.2 48.5 C-199.5 48.7 -198.8 48.9 -198.1 49.1 C-194.8 49.6 -193.2 49 -190.2 47.5 C-189.6 46.8 -188.9 46.2 -188.2 45.5 C-186.9 45.5 -185.6 45.5 -184.2 45.5 C-182.1 45.2 -179.9 44.9 -177.7 44.6 C-176.6 44.4 -175.4 44.2 -174.2 44 C-171.2 43.5 -171.2 43.5 -168.2 42.5 C-167.9 41.8 -167.6 41.2 -167.2 40.5 C-163.7 39.3 -160.4 38.5 -156.8 38.1 C-152.9 37.4 -149.8 36.1 -146.2 34.5 C-140.1 32.6 -134.7 32.3 -128.2 32.5 C-128.2 31.8 -128.2 31.2 -128.2 30.5 C-124.8 28.4 -122.2 28.3 -118.2 28.5 C-118.2 27.8 -118.2 27.2 -118.2 26.5 C-113.7 24.7 -110.1 24.5 -105.2 24.5 C-104.6 23.8 -103.9 23.2 -103.2 22.5 C-101.9 22.5 -100.6 22.5 -99.2 22.5 C-97.4 21.9 -95.6 21.3 -93.8 20.6 C-92.8 20.3 -91.9 19.9 -90.9 19.6 C-88.2 18.5 -88.2 18.5 -86 17.4 C-84.2 16.5 -84.2 16.5 -82.2 16.5 C-80.2 15.5 -78.2 14.5 -76.2 13.5 C-73.6 12.4 -71 11.4 -68.2 10.5 C-68.2 11.2 -68.2 11.8 -68.2 12.5 C-67.5 12.2 -66.7 11.8 -65.9 11.5 C-63.2 10.5 -63.2 10.5 -60.2 10.5 C-59.4 10.2 -58.5 9.9 -57.6 9.6 C-54.1 8.5 -50.7 7.7 -47.1 7.1 C-46.5 6.9 -45.9 6.7 -45.2 6.5 C-44.9 5.8 -44.6 5.2 -44.2 4.5 C-43.5 4.7 -42.8 4.9 -42 5.1 C-38.8 5.6 -38 5 -35.2 3.5 C-32.4 2.8 -29.7 2.4 -26.8 2.1 C-23.2 1.5 -23.2 1.5 -20.9 -0 C-14.6 -3.5 -6.6 -1.8 0 0 Z M-70.2 12.5 C-69.9 13.2 -69.6 13.8 -69.2 14.5 C-68.9 13.8 -68.6 13.2 -68.2 12.5 C-68.9 12.5 -69.6 12.5 -70.2 12.5 Z M-75.2 13.5 C-75.2 14.2 -75.2 14.8 -75.2 15.5 C-74.6 15.5 -73.9 15.5 -73.2 15.5 C-73.2 14.8 -73.2 14.2 -73.2 13.5 C-73.9 13.5 -74.6 13.5 -75.2 13.5 Z M194.8 97.5 C194.8 98.2 194.8 98.8 194.8 99.5 C195.7 99.5 196.7 99.5 197.8 99.5 C197.8 98.8 197.8 98.2 197.8 97.5 C196.8 97.5 195.8 97.5 194.8 97.5 Z " fill="#C87A26" transform="translate(1214.25,379.5)"/>
<path d="M0 0 C1.1 3.7 1 7.1 1 11 C1 12 0.9 13.1 0.9 14.2 C0.9 14.7 0.9 14.7 0.9 17.4 C1 20 1 20 2 21 C2.1 23.2 2.1 25.4 2.1 27.6 C2.1 28.8 2 30 2 31.2 C2 31.7 2 31.7 2 34 C1.3 34 0.7 34 0 34 C0 36 0 38 0 40 C-0.7 40 -1.3 40 -2 40 C-2.7 42 -3.3 44 -4 46 C-5 46 -6 46 -7 46 C-7.3 47.3 -7.7 48.6 -8 50 C-8.8 50.1 -9.5 50.1 -10.3 50.2 C-11.3 50.3 -12.3 50.4 -13.3 50.4 C-13.8 50.5 -13.8 50.5 -16.3 50.7 C-19 51 -19 51 -22 52 C-22 51.3 -22 50.7 -22 50 C-22.8 50.2 -23.5 50.3 -24.3 50.5 C-27 51 -27 51 -30 51 C-30 52 -30 53 -30 54 C-30.3 54 -30.3 54 -31.9 53.9 C-32.7 53.9 -33.5 53.9 -34.3 53.9 C-35.1 53.9 -35.9 53.8 -36.7 53.8 C-39 54 -39 54 -42 56 C-42 55.3 -42 54.7 -42 54 C-43.7 54.3 -45.3 54.7 -47 55 C-47.3 56 -47.7 57 -48 58 C-52 58.8 -56 59.4 -60 60 C-60 60.7 -60 61.3 -60 62 C-68.2 64.9 -68.2 64.9 -71.9 65.6 C-74 66 -74 66 -76 68 C-76 67.3 -76 66.7 -76 66 C-76.8 66.1 -77.6 66.3 -78.4 66.4 C-79.5 66.6 -80.5 66.8 -81.6 66.9 C-82.7 67.1 -83.7 67.3 -84.8 67.5 C-87.9 68 -90.9 68.5 -94 69 C-94 69.7 -94 70.3 -94 71 C-94.4 71 -94.4 71 -96.7 71.1 C-97.8 71.2 -99 71.3 -100.2 71.4 C-100.8 71.4 -100.8 71.4 -103.7 71.6 C-106.8 72 -109.1 72.8 -112 74 C-113 74 -114 74 -115 74 C-115 74.7 -115 75.3 -115 76 C-117 76.5 -119.1 77 -121.1 77.5 C-123.1 77.9 -125 78.5 -127 79 C-127.3 79.7 -127.7 80.3 -128 81 C-130.2 81.3 -130.2 81.3 -132.9 81.5 C-137.8 81.8 -137.8 81.8 -140 84 C-142.9 85 -145.9 85.5 -148.9 86.2 C-149.3 86.3 -149.3 86.3 -151.4 86.8 C-152.2 86.9 -153 87.1 -153.8 87.3 C-154.6 87.5 -155.3 87.6 -156 87.8 C-158 88 -158 88 -161 87 C-161.3 88 -161.7 89 -162 90 C-164 89.9 -165.9 89.9 -167.9 89.8 C-170.3 90 -171.8 90.9 -174 92 C-175.5 92.3 -177.1 92.6 -178.6 92.9 C-182.4 93.6 -185.7 94.6 -189.2 96.1 C-193 97.7 -195.8 98.2 -200 98 C-200.7 98.7 -201.3 99.3 -202 100 C-204.5 100.3 -207 100.4 -209.5 100.6 C-212 101 -212 101 -213.9 102.5 C-216.8 104.6 -219.2 104.5 -222.8 104.7 C-223.9 104.8 -225.1 104.8 -226.3 104.9 C-227.2 104.9 -228.1 105 -229 105 C-228.7 106 -228.3 107 -228 108 C-228.7 108 -229.3 108 -230 108 C-230 107.3 -230 106.7 -230 106 C-231.3 106.3 -232.6 106.7 -234 107 C-234 108 -234 109 -234 110 C-234.7 110 -235.3 110 -236 110 C-236.3 109.3 -236.7 108.7 -237 108 C-237.7 108 -238.3 108 -239 108 C-239.3 108.7 -239.7 109.3 -240 110 C-242 110 -244 110 -246 110 C-246 110.7 -246 111.3 -246 112 C-247 112.1 -248.1 112.2 -249.1 112.4 C-252.7 112.9 -255.6 113.8 -259 115 C-261.8 115.8 -264.5 116.5 -267.3 117.2 C-270 118 -270 118 -272.5 119 C-275.3 120.1 -277.8 120.5 -280.8 120.9 C-285.2 121.6 -289.1 122.6 -293.3 124.1 C-297 125.3 -300.7 126.1 -304.5 127 C-311.9 128.7 -319 130.6 -325.9 133.8 C-329 135 -329 135 -332 134 C-332 134.7 -332 135.3 -332 136 C-333 136.1 -334.1 136.2 -335.1 136.4 C-338.6 136.9 -341.7 137.7 -345 139 C-345.3 139.7 -345.7 140.3 -346 141 C-347.9 141.3 -347.9 141.3 -350.2 141.5 C-353 141.7 -355 142 -357.6 143.1 C-361.1 144.4 -364.2 144.1 -368 144 C-368 144.7 -368 145.3 -368 146 C-369.1 146.1 -370.1 146.2 -371.2 146.4 C-375.6 147.1 -378.8 147.8 -382 151 C-384 151.3 -384 151.3 -386.4 151.5 C-389.8 151.7 -392 152.5 -395 154 C-396 154 -397 154 -398 154 C-398.7 154.7 -399.3 155.3 -400 156 C-402.1 156.4 -404.3 156.7 -406.4 157 C-412.7 157.8 -412.7 157.8 -416 160 C-417.3 160 -418.6 160 -420 160 C-420 160.7 -420 161.3 -420 162 C-427.6 163 -427.6 163 -431 163 C-433.3 163.3 -435.7 163.6 -438 164 C-438 164.7 -438 165.3 -438 166 C-438.7 166 -439.3 166 -440 166 C-440.3 166.7 -440.7 167.3 -441 168 C-441.6 167.8 -442.2 167.6 -442.8 167.4 C-445.2 167 -446.6 167.1 -449 168 C-449.3 168.7 -449.7 169.3 -450 170 C-451 169.7 -452 169.3 -453 169 C-454.7 169.4 -456.3 169.9 -458 170.4 C-460.1 171 -462.2 171.5 -464.3 172 C-465.1 172.2 -465.8 172.3 -466.6 172.5 C-468.1 172.8 -469.6 173.2 -471.1 173.5 C-476.8 174.8 -476.8 174.8 -479 177 C-480.3 177 -481.6 177 -483 177 C-483.7 178 -484.3 179 -485 180 C-487.6 180 -489.5 179.7 -492 179 C-492.3 179.7 -492.7 180.3 -493 181 C-494 180.7 -495 180.3 -496 180 C-496 181.3 -496 182.6 -496 184 C-497.3 184 -498.6 184 -500 184 C-500 183.3 -500 182.7 -500 182 C-500.7 182 -501.3 182 -502 182 C-502.3 182.7 -502.7 183.3 -503 184 C-505.2 184.6 -505.2 184.6 -507.9 185 C-512.8 185.8 -512.8 185.8 -515 188 C-516.3 188 -517.6 188 -519 188 C-519.3 188.7 -519.7 189.3 -520 190 C-520.7 190 -521.3 190 -522 190 C-522 189.3 -522 188.7 -522 188 C-524.6 188.6 -527.3 189.2 -529.9 189.9 C-530.6 190 -531.4 190.2 -532.1 190.4 C-537.8 191.8 -537.8 191.8 -540 194 C-541.3 194 -542.6 194 -544 194 C-544 194.7 -544 195.3 -544 196 C-545.7 196.3 -547.5 196.7 -549.2 197 C-550.2 197.2 -551.2 197.4 -552.2 197.6 C-555 198 -555 198 -559 198 C-559.3 198.7 -559.7 199.3 -560 200 C-560.7 200 -561.5 200 -562.2 199.9 C-566.2 200 -569.2 201.1 -572.8 202.6 C-576.7 204.1 -579.8 204.3 -584 204 C-584.3 204.7 -584.7 205.3 -585 206 C-585.7 206.3 -586.3 206.7 -587 207 C-587.3 207.7 -587.7 208.3 -588 209 C-588.4 209 -588.4 209 -590.2 209 C-591.2 209 -592.2 208.9 -593.2 208.9 C-594.2 208.9 -595.1 208.9 -596.1 208.9 C-598.9 209 -601.3 209.2 -604 210 C-605.3 212.1 -605.3 212.1 -606 214 C-613.8 214.1 -613.8 214.1 -616 213 C-616 214 -616 215 -616 216 C-616.7 216 -617.3 216 -618 216 C-618 215 -618 214 -618 213 C-619.5 213.5 -620.9 213.9 -622.4 214.4 C-623.2 214.6 -624 214.9 -624.8 215.1 C-627 216 -627 216 -629 218 C-629.5 218.1 -629.5 218.1 -632.1 218.4 C-635.3 218.9 -637.4 219.5 -640.3 220.6 C-641.5 221.1 -642.7 221.5 -644 222 C-644.7 221.7 -645.3 221.3 -646 221 C-646 222 -646 223 -646 224 C-646.4 224 -646.4 224 -648.7 223.9 C-652 224 -652 224 -654.4 224.5 C-657 225 -657 225 -660.4 224.9 C-664 225 -664 225 -667.2 225.9 C-676.6 228.6 -685.9 229.1 -694.8 224.6 C-697.3 223.2 -699.7 221.8 -702 220 C-702 219.3 -702 218.7 -702 218 C-703.3 218 -704.6 218 -706 218 C-707.4 215.8 -707.4 215.8 -709 213 C-713.7 207.1 -719.3 205.5 -726.6 204.5 C-730 204 -732.8 203 -736 201.7 C-738 201 -738 201 -741.7 200.1 C-745 199 -745 199 -747.3 196.6 C-750.2 193.8 -752.9 192.4 -756.6 190.7 C-757.8 190.2 -758.9 189.7 -760 189.1 C-763 188 -763 188 -766 188 C-766 187.3 -766 186.7 -766 186 C-766.3 185.9 -766.3 185.9 -768 185.3 C-771.3 183.9 -774.1 182 -777.1 179.9 C-779 179 -779 179 -782 180 C-782.3 179.6 -782.3 179.6 -783.9 177.7 C-786.9 174.7 -790.1 173.8 -794.1 172.7 C-796 172 -796 172 -797 170 C-798.9 169.3 -800.8 168.6 -802.8 167.9 C-806.5 166.4 -809.7 164.2 -813 162 C-819.2 158 -824.9 155.1 -832 153 C-833.7 152.4 -835.3 151.7 -837 151 C-837 150.3 -837 149.7 -837 149 C-840 148 -842.9 147 -846 146 C-846 145.3 -846 144.7 -846 144 C-846.5 143.9 -846.5 143.9 -848.9 143.7 C-853.5 143.1 -857.7 141.6 -862 140 C-862 139.3 -862 138.7 -862 138 C-863.6 137.7 -865.3 137.3 -867 137 C-867 136.3 -867 135.7 -867 135 C-868.3 135 -869.6 135 -871 135 C-877 129 -877 129 -878.6 127.2 C-880 126 -880 126 -882 126 C-882.3 124.7 -882.7 123.4 -883 122 C-890.5 121 -890.5 121 -894.1 121.2 C-898 120.9 -899.9 119.2 -903 117 C-905.3 116 -907.6 115 -910 114 C-911.3 113.3 -912.7 112.7 -914 112 C-914 111.3 -914 110.7 -914 110 C-915.6 109.7 -917.3 109.3 -919 109 C-919 108.3 -919 107.7 -919 107 C-919.7 107 -920.4 107.1 -921.1 107.1 C-924.6 107 -927.6 106.1 -931 105 C-931 104.3 -931 103.7 -931 103 C-931.4 102.9 -931.4 102.9 -933.3 102.2 C-936.3 100.9 -937.4 99.8 -939 97 C-939 96.3 -939 95.7 -939 95 C-939.3 94.9 -939.3 94.9 -940.7 94.2 C-943 93 -943 93 -945.5 91.4 C-948 90 -948 90 -952 90 C-952 89.3 -952 88.7 -952 88 C-952.9 88.1 -953.8 88.1 -954.7 88.2 C-958.4 88 -959.9 87 -963 85 C-964 85 -965 85 -966 85 C-966.7 84.3 -967.3 83.7 -968 83 C-970 83.4 -970 83.4 -972 84 C-972.7 84 -973.3 84 -974 84 C-974 83 -974 82 -974 81 C-974.6 80.9 -975.3 80.8 -975.9 80.7 C-976.6 80.5 -977.3 80.2 -978 80 C-978.3 79 -978.7 78 -979 77 C-980.6 76.7 -982.3 76.3 -984 76 C-986.8 69.2 -986.2 62.2 -985 55 C-984.3 54.3 -983.7 53.7 -983 53 C-982.9 50.9 -982.9 50.9 -983 48.3 C-983 47.4 -983 46.5 -983.1 45.5 C-983.1 43.5 -983.2 41.6 -983.3 39.6 C-983.4 39.2 -983.4 39.2 -983.4 36.8 C-983.5 36 -983.5 35.1 -983.5 34.2 C-983 32 -983 32 -980.9 30 C-978 29 -978 29 -975 30.1 C-973.9 30.7 -972.8 31.4 -971.6 32.1 C-970.3 32.9 -968.9 33.6 -967.6 34.4 C-966.9 34.8 -966.1 35.2 -965.4 35.7 C-961 38.1 -956.5 40.3 -952 42.5 C-950.1 43.5 -948.1 44.5 -946.1 45.5 C-944.1 46.5 -942.1 47.5 -940.1 48.5 C-938.1 49.5 -936 50.5 -934 51.5 C-926.8 55.1 -919.5 58.7 -912.3 62.4 C-910.8 63.1 -909.4 63.8 -908 64.5 C-907.4 64.8 -906.8 65.1 -906.2 65.4 C-901.9 67.5 -897.7 69.7 -893.5 72 C-885.7 76.2 -877.9 80.1 -870 84 C-860.4 88.8 -850.7 93.6 -841.2 98.6 C-834.1 102.4 -826.9 106.1 -819.6 109.7 C-801.6 118.7 -783.5 127.7 -765.7 137.2 C-756.9 142 -748 146.5 -738.9 150.8 C-727.3 156.3 -715.9 162.1 -704.5 167.9 C-703.6 168.4 -702.7 168.9 -701.7 169.4 C-699.1 170.7 -696.5 172.1 -693.8 173.4 C-693.1 173.8 -692.3 174.2 -691.5 174.6 C-688 176.4 -684.5 178.3 -681.2 180.3 C-677.1 182.5 -674.3 182.1 -670 181 C-669.4 180.8 -668.7 180.7 -668 180.5 C-666 180 -663.9 179.4 -661.9 178.8 C-660.3 178.4 -658.7 177.9 -657.1 177.4 C-656.3 177.2 -655.4 177 -654.6 176.7 C-650.2 175.5 -645.9 174.3 -641.5 173.1 C-641 173 -641 173 -638.7 172.4 C-633.7 171 -628.7 169.6 -623.7 168.3 C-611.8 165.2 -600.1 161.9 -588.4 158.4 C-581.5 156.4 -574.6 154.6 -567.6 152.9 C-562.9 151.7 -558.3 150.4 -553.7 149.1 C-549.6 147.9 -545.6 146.8 -541.5 145.6 C-540.8 145.4 -540 145.2 -539.2 145 C-533.2 143.3 -527.1 141.7 -521 140 C-507.9 136.4 -494.8 132.8 -481.8 129 C-474.5 126.8 -467.1 124.9 -459.8 123.1 C-458.8 122.8 -457.9 122.6 -456.9 122.3 C-456.1 122.1 -455.3 121.9 -454.4 121.7 C-451.9 121 -449.5 120 -447 119 C-444.4 118.4 -441.8 117.8 -439.2 117.2 C-433.5 115.9 -427.8 114.4 -422.1 112.7 C-413.4 110.1 -404.7 107.8 -395.9 105.6 C-389.2 103.9 -382.7 102 -376.1 99.9 C-371.4 98.5 -366.7 97.3 -361.9 96.1 C-353.6 94 -345.3 91.6 -337.1 89.1 C-331.4 87.4 -325.6 85.9 -319.9 84.5 C-315.2 83.3 -310.6 82 -305.9 80.6 C-299.2 78.6 -292.5 76.8 -285.7 75.1 C-277.3 72.9 -269.1 70.6 -260.9 68 C-255.3 66.3 -249.7 64.9 -244 63.7 C-241.6 63.2 -239.4 62.5 -237.1 61.7 C-230.4 59.4 -223.6 57.8 -216.8 56.1 C-208.1 53.9 -199.5 51.6 -190.9 48.9 C-186.8 47.6 -182.7 46.6 -178.5 45.6 C-170.6 43.7 -162.8 41.6 -155 39.3 C-148.7 37.5 -142.3 35.7 -135.9 34 C-128.8 32.1 -121.7 30 -114.6 27.9 C-106.9 25.5 -99.1 23.5 -91.2 21.6 C-72.3 16.9 -53.4 11.7 -34.8 5.8 C-29.2 4 -23.5 2.6 -17.7 1.3 C-14.7 0.7 -12 0 -9.2 -1.2 C-5.8 -2.4 -3.3 -1.2 0 0 Z " fill="#B36A22" transform="translate(1516,1066)"/>
<path d="M0 0 C6.1 3.5 10.5 7.3 14.4 13.1 C15 13.8 15.5 14.6 16 15.4 C20.9 24.1 21.4 35.6 18.9 45.2 C15.6 54.4 9.6 62 0.8 66.4 C-9.2 70.6 -19.4 72 -29.8 68.1 C-40.2 63.2 -47.1 55.5 -51.4 44.9 C-54.2 35.4 -53.5 25.8 -49.2 16.9 C-38.9 -0.6 -18.8 -9.2 0 0 Z " fill="#4D2C18" transform="translate(1059.5625,878.9375)"/>
<path d="M0 0 C8.6 4.8 15 13 18.3 22.2 C20.7 32.5 19.5 42.8 14.4 52 C9.2 60.2 2.3 66 -7 69 C-10.3 69.5 -13.6 69.6 -16.9 69.6 C-17.8 69.6 -18.7 69.5 -19.6 69.5 C-26.4 69.3 -31.5 68.1 -37 64 C-37.3 63.8 -37.3 63.8 -38.9 62.6 C-46.6 56.8 -51.4 48.4 -53 39 C-54.2 28 -52.4 19.4 -46.1 10.2 C-34.2 -4.3 -16.9 -7.7 0 0 Z " fill="#4D2B17" transform="translate(1322,822)"/>
<path d="M0 0 C3.6 1.6 6.2 3.4 8 7 C9 12.1 8.4 16 5.6 20.4 C1.7 25.6 -2.6 30.3 -7 35 C-7.6 35.6 -8.2 36.3 -8.7 36.9 C-22.4 51.6 -43 58.3 -62.5 59.3 C-83.8 59.9 -102.9 53.9 -120 41 C-122.4 38 -122.4 34.8 -122.3 31 C-121.8 27.8 -120.2 26.2 -118 24 C-114.2 21.5 -112.5 21.5 -108 22 C-105.3 23.2 -102.9 24.7 -100.5 26.2 C-84.6 35.7 -66.9 37.7 -48.9 33.4 C-33.2 28.5 -21.7 18.9 -12.7 5.3 C-9 0.3 -6.2 -0.6 0 0 Z " fill="#502B12" transform="translate(1243,940)"/>
<path d="M0 0 C-2 2 -2 2 -4.4 2.9 C-7.5 4.2 -8.4 5.1 -10 8 C-10.3 10.8 -10.4 13.3 -10.3 16 C-10.3 16.8 -10.3 17.6 -10.3 18.4 C-10.3 20.8 -10.2 23.3 -10.2 25.8 C-10.2 27.4 -10.2 29.1 -10.1 30.8 C-10.1 34.8 -10.1 38.9 -10 43 C-12 43 -14 43 -16 43 C-17.2 39.3 -17.2 36 -17.2 32.2 C-17.2 31.4 -17.2 30.6 -17.2 29.8 C-17.2 28.2 -17.2 26.6 -17.2 25 C-17.2 22.5 -17.3 20 -17.3 17.6 C-17.3 16 -17.3 14.4 -17.3 12.8 C-17.3 12.1 -17.4 11.4 -17.4 10.6 C-17.3 5.5 -17.3 5.5 -15.6 3.1 C-13.5 1.7 -11.5 1 -9.1 0.2 C-8.2 -0 -7.4 -0.3 -6.5 -0.5 C-3.9 -1 -2.4 -0.8 0 0 Z " fill="#7D3B0B" transform="translate(551,567)"/>
<path d="M0 0 C0.7 0 1.3 0 2 0 C2 0.7 2 1.3 2 2 C1 1.7 0 1.3 -1 1 C-0.7 0.7 -0.3 0.3 0 0 Z " fill="#BB782C" transform="translate(984,435)"/>
<path d="M0 0 C0.7 0 1.3 0 2 0 C2 0.7 2 1.3 2 2 C1.3 2 0.7 2 0 2 C0 1.3 0 0.7 0 0 Z " fill="#A7671F" transform="translate(1042,1240)"/>
<path d="M0 0 C0.7 0.7 1.3 1.3 2 2 C1 1.7 0 1.3 -1 1 C-0.7 0.7 -0.3 0.3 0 0 Z " fill="#925022" transform="translate(630,1188)"/>
<path d="M0 0 C0.7 0 1.3 0 2 0 C2 0.7 2 1.3 2 2 C1.3 2 0.7 2 0 2 C0 1.3 0 0.7 0 0 Z " fill="#914E20" transform="translate(566,1156)"/>
<path d="M0 0 C0.7 0 1.3 0 2 0 C2 0.7 2 1.3 2 2 C1.3 2 0.7 2 0 2 C0 1.3 0 0.7 0 0 Z " fill="#AD681C" transform="translate(1488,1118)"/>
<path d="M0 0 C0.7 0.7 1.3 1.3 2 2 C1.3 2 0.7 2 0 2 C0 1.3 0 0.7 0 0 Z " fill="#935223" transform="translate(794,1272)"/>
<path d="M0 0 C0.7 0.7 1.3 1.3 2 2 C1.3 2 0.7 2 0 2 C0 1.3 0 0.7 0 0 Z " fill="#B16C1E" transform="translate(1478,1120)"/>
<path d="M0 0 C0.7 0 1.3 0 2 0 C1.7 0.7 1.3 1.3 1 2 C0.7 1.3 0.3 0.7 0 0 Z " fill="#C87E28" transform="translate(1416,478)"/>
<path d="M0 0 C0.3 0.7 0.7 1.3 1 2 C0.3 1.7 -0.3 1.3 -1 1 C-0.7 0.7 -0.3 0.3 0 0 Z " fill="#C57D2A" transform="translate(1004,430)"/>
<path d="M0 0 C2 1 2 1 2 1 Z " fill="#CB7F28" transform="translate(940,448)"/>
</svg>
